<?xml version="1.0" encoding="utf-8"?>
<!-- Generator: Adobe Illustrator 21.0.2, SVG Export Plug-In . SVG Version: 6.00 Build 0)  -->
<svg version="1.1" id="Layer_1" xmlns="http://www.w3.org/2000/svg" xmlns:xlink="http://www.w3.org/1999/xlink" x="0px" y="0px"
	 viewBox="0 0 256 256" style="enable-background:new 0 0 256 256;" xml:space="preserve">
<g>
	<path d="M148.4,114.4c0.3-4.2,0.7-8.3,1.2-12.4c1.3-10.5,3.5-20.9,6.3-30.9c0.8-2.7,1.6-5.4,2.5-8c3.4-10.4,7.7-20.4,12.7-30
		c1.8-3.4,3.6-6.8,5.6-10.1c4.4-7.5,9.3-14.7,14.7-21.5l-9.4,9.5l-16.5,16.5l-15.7,15.7l-15.4,15.4l-16.5,16.5L93.8,98.9L64.7,128
		l24.1,24.1l22.5,22.5l21.2,21.2l17,17l14.4,14.3l13.3,13.3l14,14c-7.8-10.1-14.8-20.9-20.6-32.4c-1.2-2.3-2.3-4.6-3.4-6.9
		c-3.8-8.3-7.2-16.8-9.9-25.6c-1.7-5.5-3.2-11.1-4.4-16.8c-1.4-6.2-2.5-12.4-3.3-18.8c-0.7-5.2-1.1-10.5-1.4-15.9
		c-0.1-2.1-0.2-4.2-0.2-6.2c0-1.3,0-2.6,0-3.9c0-1.3,0-2.6,0-3.9C148.1,120.9,148.2,117.6,148.4,114.4z"/>
</g>
</svg>
