<?xml version="1.0" encoding="utf-8"?>
<!-- Generator: Adobe Illustrator 21.0.2, SVG Export Plug-In . SVG Version: 6.00 Build 0)  -->
<svg version="1.1" id="Layer_1" xmlns="http://www.w3.org/2000/svg" xmlns:xlink="http://www.w3.org/1999/xlink" x="0px" y="0px"
	 viewBox="0 0 256 256" style="enable-background:new 0 0 256 256;" xml:space="preserve">
<path d="M27.9,136.2c0,1.5-0.3,2.7-0.9,3.8s-1.4,2-2.5,2.7c-1,0.7-2.3,1.3-3.7,1.6c-1.4,0.4-2.9,0.5-4.4,0.5H0V111h18.8
	c1.2,0,2.2,0.3,3.2,0.8c0.9,0.5,1.8,1.2,2.4,2c0.7,0.8,1.2,1.7,1.5,2.8c0.4,1,0.5,2.1,0.5,3.2c0,1.6-0.4,3.1-1.2,4.6
	c-0.8,1.4-2,2.5-3.6,3.2c1.9,0.6,3.5,1.6,4.6,3C27.4,132.1,27.9,133.9,27.9,136.2z M7.8,117.8v7h7.7c0.9,0,1.6-0.3,2.3-0.9
	c0.7-0.6,1-1.5,1-2.7c0-1.1-0.3-2-0.9-2.6s-1.3-0.9-2.1-0.9L7.8,117.8L7.8,117.8z M20,134.7c0-1-0.3-1.9-0.9-2.7s-1.4-1.1-2.3-1.1
	h-9v7.4h8.7c1,0,1.9-0.3,2.5-1C19.7,136.6,20,135.7,20,134.7z"/>
<path d="M32.5,144.9v-33.8h15.2c1.6,0,3.1,0.3,4.4,1c1.3,0.7,2.5,1.5,3.5,2.6s1.8,2.3,2.3,3.7c0.6,1.4,0.8,2.7,0.8,4.1
	c0,1-0.1,2.1-0.4,3c-0.3,1-0.6,1.9-1.1,2.7c-0.5,0.8-1.1,1.6-1.7,2.3c-0.7,0.7-1.5,1.3-2.3,1.7l7.4,12.6h-8.8L45.4,134h-5.1v10.9
	H32.5z M40.4,127.2h7.1c0.9,0,1.7-0.4,2.4-1.3s1-2,1-3.4s-0.4-2.5-1.1-3.3c-0.8-0.8-1.6-1.2-2.5-1.2h-6.9V127.2z"/>
<path d="M73.1,111.1h7l12.3,33.8h-8l-2.6-7.6H71.3l-2.6,7.6h-8L73.1,111.1z M80.6,131.9l-4-11.9l-4,11.9H80.6z"/>
<path d="M103.6,125.6v19.3h-7.8v-33.8h6.1l15.8,19.8v-19.8h7.8v33.8h-6.3L103.6,125.6z"/>
<path d="M131.9,144.9v-33.8h12.6c2.8,0,5.2,0.4,7.3,1.3s3.8,2.1,5.3,3.6c1.4,1.5,2.5,3.3,3.2,5.4c0.7,2,1.1,4.2,1.1,6.5
	c0,2.6-0.4,4.9-1.2,7s-1.9,3.9-3.4,5.3s-3.3,2.6-5.3,3.4c-2.1,0.8-4.4,1.2-6.9,1.2h-12.7V144.9z M153.4,128c0-1.5-0.2-2.8-0.6-4.1
	s-1-2.3-1.7-3.2c-0.8-0.9-1.7-1.6-2.8-2c-1.1-0.5-2.4-0.7-3.8-0.7h-4.8v20h4.8c1.4,0,2.7-0.3,3.8-0.8s2-1.2,2.8-2.1
	c0.7-0.9,1.3-2,1.7-3.2C153.2,130.8,153.4,129.4,153.4,128z"/>
<path d="M169.3,135.2v-6.9H184v6.9H169.3z"/>
<g>
	<path d="M223.1,137.2c-1.3,0-2.5,0.5-3.4,1.4l-15.6,15.6l6.9,6.8l12.2-12.2l12.2,12.2l6.7-6.8l-15.6-15.6
		C225.6,137.7,224.4,137.2,223.1,137.2z"/>
	<path d="M243.8,128l12.1-12.2l-6.7-6.8l-15.6,15.6c-0.9,0.9-1.4,2.1-1.4,3.4s0.5,2.5,1.4,3.4l15.7,15.6l6.7-6.8L243.8,128z"/>
	<path d="M214,128.1c0-1.3-0.5-2.5-1.4-3.4L197,109.1l-6.8,6.7l12.2,12.2l-12.2,12.2l6.7,6.8l15.7-15.5
		C213.5,130.6,214,129.4,214,128.1z"/>
	<path d="M223.1,118.8c1.2,0,2.4-0.5,3.2-1.3l15.6-15.6l-6.7-6.8L223,107.3l-12.2-12.2l-6.7,6.7l15.6,15.6
		C220.6,118.3,221.8,118.8,223.1,118.8z"/>
</g>
</svg>
