<?xml version="1.0" encoding="utf-8"?>
<!-- Generator: Adobe Illustrator 21.0.2, SVG Export Plug-In . SVG Version: 6.00 Build 0)  -->
<svg version="1.1" id="Layer_1" xmlns="http://www.w3.org/2000/svg" xmlns:xlink="http://www.w3.org/1999/xlink" x="0px" y="0px"
	 viewBox="0 0 256 256" style="enable-background:new 0 0 256 256;" xml:space="preserve">
<g>
	<path d="M128.3,0H128h-0.3C57.3,0,0,57.7,0,128c0,70.7,57.3,128,128,128s128-57.3,128-128C256,57.7,198.7,0,128.3,0z M87.2,21.3
		C76.5,33.6,67.9,50.8,62.5,71.4c-9.3-3.4-17.8-7.9-25.1-12.7C50.1,41.9,67.3,28.8,87.2,21.3z M29.5,70C38.1,75.8,48,80.6,59,84.8
		c-2.4,11.3-3.8,23.7-4.1,36.4H13.7C15.1,102.6,20.6,85.1,29.5,70z M13.7,134.9h41.2c0.3,12.4,1.7,24.4,3.8,35.3
		c-11,4.1-21.3,8.9-29.9,14.8C20.2,170.2,14.8,153.1,13.7,134.9z M36.7,196.6c7.2-5.1,15.8-9.3,25.4-13
		c5.5,20.9,14.4,38.4,25.1,51.1C66.9,227.2,49.4,213.8,36.7,196.6z M121.1,241.6c-19.9-4.5-37.1-28.8-46-62.1
		c14.1-3.8,29.9-6.2,46-6.9V241.6z M121.1,158.9c-17.2,0.7-34,3.1-49.1,7.2c-2.1-10-3.1-20.6-3.4-31.2h52.5V158.9z M121.1,121.1
		H68.6c0.3-11.3,1.7-22,3.8-32.3c15.1,4.1,31.6,6.5,48.7,6.9V121.1z M121.1,82c-16.1-0.3-31.6-2.7-45.6-6.5
		c8.9-32.6,26.1-56.6,45.6-61.1V82z M134.9,14.4c19.6,4.5,36.7,28.5,45.6,61.1c-14.1,3.8-29.5,6.2-45.6,6.5
		C134.9,82,134.9,14.4,134.9,14.4z M134.9,95.7c17.2-0.7,33.6-3.1,48.7-7.2c2.1,10.3,3.4,21.3,3.8,32.3h-52.5V95.7z M134.9,134.9
		h52.5c-0.3,11-1.4,21.3-3.4,31.2c-15.1-4.1-31.9-6.5-49.1-7.2V134.9z M134.9,241.6v-69c16.1,0.7,31.9,2.7,46,6.9
		C171.9,212.8,154.8,236.8,134.9,241.6z M168.8,234.7c11-12.7,19.6-30.2,25.1-51.1c9.6,3.4,17.8,7.9,25.4,13
		C206.6,213.8,189.1,227.2,168.8,234.7z M226.8,185.3c-8.6-5.8-18.5-11-29.9-14.8c2.1-11.3,3.4-23,3.8-35.3h41.2
		C241.2,153.1,235.8,170.2,226.8,185.3z M242.3,121.1h-41.2c-0.3-12.7-1.7-25.1-4.1-36.7c11-4.1,20.9-8.9,29.5-14.8
		C235.4,85.1,240.9,102.6,242.3,121.1z M193.9,71c-5.5-20.2-14.1-37.4-24.7-50.1c19.9,7.5,37.1,20.6,49.8,37.4
		C211.7,63.5,203.2,67.6,193.9,71z"/>
</g>
</svg>
